<svg width="175" height="47" viewBox="0 0 175 47" fill="none" xmlns="http://www.w3.org/2000/svg">
<path d="M22 0C13.2636 0 5.4327 3.388 0 8.8L22 44L44 8.8C38.5918 3.41 30.7364 0 22 0ZM9.76418 11C9.76418 8.58 11.9666 6.6 14.6585 6.6C17.3504 6.6 19.5528 8.58 19.5528 11C19.5528 13.42 17.3504 15.4 14.6585 15.4C11.9666 15.4 9.76418 13.42 9.76418 11ZM22 28.6C19.3081 28.6 17.1057 26.62 17.1057 24.2C17.1057 21.78 19.3081 19.8 22 19.8C24.6919 19.8 26.8943 21.78 26.8943 24.2C26.8943 26.62 24.6919 28.6 22 28.6Z" fill="#F2DBD4"/>
<path d="M56.128 35.17C56.0373 34.4447 55.9693 33.708 55.924 32.96C55.9013 32.1893 55.89 31.4413 55.89 30.716V28.2C55.89 27.724 55.89 27.3047 55.89 26.942C55.89 26.5567 55.8787 26.194 55.856 25.854C55.7653 24.358 55.6973 22.8733 55.652 21.4C55.6067 19.904 55.5273 18.4193 55.414 16.946L55.584 13.24L60.174 12.968C60.4913 12.9453 60.786 12.8887 61.058 12.798C61.33 12.7073 61.5907 12.662 61.84 12.662C63.948 12.662 65.614 12.8887 66.838 13.342C68.0847 13.7727 69.1273 14.5547 69.966 15.688C70.3287 16.164 70.6233 16.844 70.85 17.728C71.0993 18.612 71.224 19.5527 71.224 20.55C71.224 21.434 71.0087 22.3067 70.578 23.168C70.17 24.0293 69.626 24.7773 68.946 25.412C68.2887 26.024 67.5973 26.4433 66.872 26.67C66.3733 26.8287 65.7273 26.942 64.934 27.01C64.1407 27.0553 63.3473 27.0893 62.554 27.112C61.7833 27.112 61.1713 27.112 60.718 27.112L60.412 24.732C60.888 24.732 61.5 24.732 62.248 24.732C63.0187 24.732 63.7667 24.7093 64.492 24.664C65.24 24.6187 65.7953 24.5393 66.158 24.426C66.5887 24.29 67.008 24.018 67.416 23.61C67.824 23.1793 68.164 22.692 68.436 22.148C68.708 21.5813 68.844 21.0487 68.844 20.55C68.844 19.7793 68.7647 19.1333 68.606 18.612C68.47 18.068 68.2887 17.6487 68.062 17.354C67.5407 16.6287 66.804 16.0733 65.852 15.688C64.9 15.3027 63.5627 15.11 61.84 15.11C61.6133 15.11 61.364 15.1667 61.092 15.28C60.8427 15.3933 60.5933 15.4387 60.344 15.416C59.8453 15.3933 59.3807 15.416 58.95 15.484C58.5193 15.552 58.1453 15.62 57.828 15.688C57.8053 15.8467 57.7827 16.0167 57.76 16.198C57.76 16.3793 57.7713 16.5607 57.794 16.742C57.9073 18.238 57.9867 19.734 58.032 21.23C58.0773 22.726 58.1453 24.2107 58.236 25.684C58.2587 26.0467 58.27 26.432 58.27 26.84C58.27 27.2253 58.27 27.6787 58.27 28.2V30.716C58.27 32.3707 58.3493 33.7193 58.508 34.762L56.128 35.17ZM76.3267 35.034C76.3267 32.9487 76.304 30.7727 76.2587 28.506C76.2133 26.2167 76.134 23.8707 76.0207 21.468C75.998 21.264 75.9867 21.0487 75.9867 20.822C75.9867 20.5953 75.9867 20.38 75.9867 20.176C75.9867 18.952 76.0207 17.728 76.0887 16.504C76.1793 15.2573 76.2247 14.056 76.2247 12.9H78.6047C78.6047 14.1013 78.5593 15.3253 78.4687 16.572C78.4007 17.8187 78.3667 19.02 78.3667 20.176C78.3667 20.4027 78.3667 20.618 78.3667 20.822C78.3667 21.0033 78.378 21.1847 78.4007 21.366C78.514 23.7687 78.5933 26.126 78.6387 28.438C78.684 30.75 78.7067 32.9487 78.7067 35.034H76.3267ZM119.299 46.56C117.984 46.56 116.624 46.3787 115.219 46.016C113.836 45.6533 112.465 45.1887 111.105 44.622C109.745 44.078 108.475 43.5 107.297 42.888C106.639 42.548 105.948 42.1967 105.223 41.834C104.497 41.4713 103.806 41.018 103.149 40.474C102.582 39.9753 101.891 39.488 101.075 39.012C100.259 38.5587 99.3747 38.026 98.4227 37.414C97.3573 36.734 96.3147 36.088 95.2947 35.476C94.2747 34.864 93.164 34.4107 91.9627 34.116C91.192 33.912 90.3873 33.81 89.5487 33.81C88.71 33.81 87.9393 33.8553 87.2367 33.946C86.534 34.0367 85.82 34.32 85.0947 34.796C84.9813 34.864 84.732 35 84.3467 35.204C83.9613 35.4307 83.5647 35.646 83.1567 35.85C82.7713 36.054 82.4993 36.156 82.3407 36.156L82.0007 34.49L80.9127 35.238C80.822 34.6487 80.9013 34.0933 81.1507 33.572C81.4 33.028 81.7287 32.5293 82.1367 32.076C82.5447 31.6227 82.9527 31.2373 83.3607 30.92C83.7687 30.58 84.0747 30.3307 84.2787 30.172C85.9787 28.7213 87.5313 27.1347 88.9367 25.412C90.3647 23.6893 91.77 21.9667 93.1527 20.244C93.81 19.4507 94.558 18.7027 95.3967 18C96.258 17.2747 96.972 16.5267 97.5387 15.756C97.108 15.7787 96.632 15.79 96.1107 15.79C95.612 15.7673 95.0793 15.7107 94.5127 15.62C93.9007 15.5067 93.1867 15.3933 92.3707 15.28C91.5547 15.144 90.75 15.076 89.9567 15.076C89.662 15.076 89.3787 15.076 89.1067 15.076C88.8573 15.076 88.642 15.1213 88.4607 15.212C87.9167 15.4387 87.5313 15.722 87.3047 16.062C87.078 16.402 86.9987 16.9007 87.0667 17.558C87.112 17.762 87.1347 17.9547 87.1347 18.136C87.1573 18.2947 87.18 18.4307 87.2027 18.544C87.248 18.7707 87.248 18.85 87.2027 18.782C87.1573 18.714 87.044 18.612 86.8627 18.476L85.8087 20.04C85.65 19.8587 85.4687 19.7113 85.2647 19.598C85.0607 19.462 84.936 19.2467 84.8907 18.952C84.8227 18.6347 84.7887 18.3513 84.7887 18.102C84.7887 17.8527 84.7887 17.6827 84.7887 17.592C84.698 16.3227 84.9133 15.382 85.4347 14.77C85.9787 14.1353 86.7153 13.58 87.6447 13.104C88.166 12.832 88.9253 12.696 89.9227 12.696C90.716 12.696 91.5547 12.7527 92.4387 12.866C93.3453 12.9567 94.15 13.0813 94.8527 13.24C95.2833 13.308 95.748 13.3533 96.2467 13.376C96.7453 13.376 97.278 13.376 97.8447 13.376C98.026 13.376 98.2187 13.3193 98.4227 13.206C98.6493 13.0927 98.876 13.0473 99.1027 13.07H99.2387C99.42 12.8887 99.6127 12.7187 99.8167 12.56C100.021 12.4013 100.236 12.254 100.463 12.118C100.78 11.9367 101.029 11.7667 101.211 11.608C101.392 11.4493 101.63 11.37 101.925 11.37L102.333 11.982C102.378 11.982 102.389 11.9933 102.367 12.016C102.367 12.016 102.378 12.016 102.401 12.016L103.217 12.356C103.285 12.5827 103.307 12.73 103.285 12.798C103.285 12.866 103.296 12.9227 103.319 12.968C103.477 13.8293 103.443 14.4413 103.217 14.804C103.013 15.1667 102.718 15.382 102.333 15.45C101.947 15.4953 101.562 15.518 101.177 15.518C101.018 15.518 100.859 15.5407 100.701 15.586C100.542 15.6087 100.372 15.6427 100.191 15.688C100.168 15.7787 100.134 15.8693 100.089 15.96C100.043 16.028 99.998 16.1073 99.9527 16.198C99.522 17.0367 99.0007 17.7733 98.3887 18.408C97.7993 19.0427 97.1873 19.632 96.5527 20.176C95.9407 20.72 95.374 21.3093 94.8527 21.944C93.402 23.712 91.974 25.4573 90.5687 27.18C89.1633 28.88 87.588 30.4667 85.8427 31.94C85.8653 31.94 85.786 32.008 85.6047 32.144C86.194 31.94 86.7947 31.7927 87.4067 31.702C88.0187 31.5887 88.71 31.532 89.4807 31.532C89.866 31.532 90.2967 31.5547 90.7727 31.6C91.2487 31.6227 91.7813 31.702 92.3707 31.838C93.6627 32.11 94.9093 32.5747 96.1107 33.232C97.312 33.8667 98.502 34.558 99.6807 35.306C100.61 35.8953 101.494 36.428 102.333 36.904C103.171 37.4027 103.942 37.9467 104.645 38.536C105.143 38.9667 105.699 39.352 106.311 39.692C106.945 40.032 107.603 40.3607 108.283 40.678C109.461 41.2447 110.663 41.8 111.887 42.344C113.111 42.9107 114.335 43.3753 115.559 43.738C116.805 44.1007 118.029 44.282 119.231 44.282C119.661 44.282 120.103 44.1913 120.557 44.01C121.01 43.8287 121.384 43.602 121.679 43.33C121.973 43.058 122.098 42.7973 122.053 42.548C122.03 42.4347 122.019 42.3667 122.019 42.344C122.041 42.344 122.053 42.3327 122.053 42.31C121.985 42.174 121.905 42.0153 121.815 41.834C121.747 41.6753 121.679 41.4827 121.611 41.256L123.855 40.61C123.9 40.7233 123.968 40.9047 124.059 41.154C124.172 41.4033 124.251 41.6753 124.297 41.97C124.342 42.242 124.353 42.4913 124.331 42.718C124.308 42.9673 124.274 43.1827 124.229 43.364L124.263 43.398C124.013 44.3727 123.424 45.1433 122.495 45.71C121.565 46.2767 120.5 46.56 119.299 46.56ZM102.129 12.016L102.163 11.982H102.129V12.016ZM141.014 46.56C139.699 46.56 138.339 46.3787 136.934 46.016C135.551 45.6533 134.18 45.1887 132.82 44.622C131.46 44.078 130.19 43.5 129.012 42.888C128.354 42.548 127.663 42.1967 126.938 41.834C126.212 41.4713 125.521 41.018 124.864 40.474C124.297 39.9753 123.606 39.488 122.79 39.012C121.974 38.5587 121.09 38.026 120.138 37.414C119.072 36.734 118.03 36.088 117.01 35.476C115.99 34.864 114.879 34.4107 113.678 34.116C112.907 33.912 112.102 33.81 111.264 33.81C110.425 33.81 109.654 33.8553 108.952 33.946C108.249 34.0367 107.535 34.32 106.81 34.796C106.696 34.864 106.447 35 106.062 35.204C105.676 35.4307 105.28 35.646 104.872 35.85C104.486 36.054 104.214 36.156 104.056 36.156L103.716 34.49L102.628 35.238C102.537 34.6487 102.616 34.0933 102.866 33.572C103.115 33.028 103.444 32.5293 103.852 32.076C104.26 31.6227 104.668 31.2373 105.076 30.92C105.484 30.58 105.79 30.3307 105.994 30.172C107.694 28.7213 109.246 27.1347 110.652 25.412C112.08 23.6893 113.485 21.9667 114.868 20.244C115.525 19.4507 116.273 18.7027 117.112 18C117.973 17.2747 118.687 16.5267 119.254 15.756C118.823 15.7787 118.347 15.79 117.826 15.79C117.327 15.7673 116.794 15.7107 116.228 15.62C115.616 15.5067 114.902 15.3933 114.086 15.28C113.27 15.144 112.465 15.076 111.672 15.076C111.377 15.076 111.094 15.076 110.822 15.076C110.572 15.076 110.357 15.1213 110.176 15.212C109.632 15.4387 109.246 15.722 109.02 16.062C108.793 16.402 108.714 16.9007 108.782 17.558C108.827 17.762 108.85 17.9547 108.85 18.136C108.872 18.2947 108.895 18.4307 108.918 18.544C108.963 18.7707 108.963 18.85 108.918 18.782C108.872 18.714 108.759 18.612 108.578 18.476L107.524 20.04C107.365 19.8587 107.184 19.7113 106.98 19.598C106.776 19.462 106.651 19.2467 106.606 18.952C106.538 18.6347 106.504 18.3513 106.504 18.102C106.504 17.8527 106.504 17.6827 106.504 17.592C106.413 16.3227 106.628 15.382 107.15 14.77C107.694 14.1353 108.43 13.58 109.36 13.104C109.881 12.832 110.64 12.696 111.638 12.696C112.431 12.696 113.27 12.7527 114.154 12.866C115.06 12.9567 115.865 13.0813 116.568 13.24C116.998 13.308 117.463 13.3533 117.962 13.376C118.46 13.376 118.993 13.376 119.56 13.376C119.741 13.376 119.934 13.3193 120.138 13.206C120.364 13.0927 120.591 13.0473 120.818 13.07H120.954C121.135 12.8887 121.328 12.7187 121.532 12.56C121.736 12.4013 121.951 12.254 122.178 12.118C122.495 11.9367 122.744 11.7667 122.926 11.608C123.107 11.4493 123.345 11.37 123.64 11.37L124.048 11.982C124.093 11.982 124.104 11.9933 124.082 12.016C124.082 12.016 124.093 12.016 124.116 12.016L124.932 12.356C125 12.5827 125.022 12.73 125 12.798C125 12.866 125.011 12.9227 125.034 12.968C125.192 13.8293 125.158 14.4413 124.932 14.804C124.728 15.1667 124.433 15.382 124.048 15.45C123.662 15.4953 123.277 15.518 122.892 15.518C122.733 15.518 122.574 15.5407 122.416 15.586C122.257 15.6087 122.087 15.6427 121.906 15.688C121.883 15.7787 121.849 15.8693 121.804 15.96C121.758 16.028 121.713 16.1073 121.668 16.198C121.237 17.0367 120.716 17.7733 120.104 18.408C119.514 19.0427 118.902 19.632 118.268 20.176C117.656 20.72 117.089 21.3093 116.568 21.944C115.117 23.712 113.689 25.4573 112.284 27.18C110.878 28.88 109.303 30.4667 107.558 31.94C107.58 31.94 107.501 32.008 107.32 32.144C107.909 31.94 108.51 31.7927 109.122 31.702C109.734 31.5887 110.425 31.532 111.196 31.532C111.581 31.532 112.012 31.5547 112.488 31.6C112.964 31.6227 113.496 31.702 114.086 31.838C115.378 32.11 116.624 32.5747 117.826 33.232C119.027 33.8667 120.217 34.558 121.396 35.306C122.325 35.8953 123.209 36.428 124.048 36.904C124.886 37.4027 125.657 37.9467 126.36 38.536C126.858 38.9667 127.414 39.352 128.026 39.692C128.66 40.032 129.318 40.3607 129.998 40.678C131.176 41.2447 132.378 41.8 133.602 42.344C134.826 42.9107 136.05 43.3753 137.274 43.738C138.52 44.1007 139.744 44.282 140.946 44.282C141.376 44.282 141.818 44.1913 142.272 44.01C142.725 43.8287 143.099 43.602 143.394 43.33C143.688 43.058 143.813 42.7973 143.768 42.548C143.745 42.4347 143.734 42.3667 143.734 42.344C143.756 42.344 143.768 42.3327 143.768 42.31C143.7 42.174 143.62 42.0153 143.53 41.834C143.462 41.6753 143.394 41.4827 143.326 41.256L145.57 40.61C145.615 40.7233 145.683 40.9047 145.774 41.154C145.887 41.4033 145.966 41.6753 146.012 41.97C146.057 42.242 146.068 42.4913 146.046 42.718C146.023 42.9673 145.989 43.1827 145.944 43.364L145.978 43.398C145.728 44.3727 145.139 45.1433 144.21 45.71C143.28 46.2767 142.215 46.56 141.014 46.56ZM123.844 12.016L123.878 11.982H123.844V12.016ZM141.878 36.19C141.47 36.19 141.13 36.02 140.858 35.68C140.609 35.3627 140.484 34.9547 140.484 34.456C140.484 34.116 140.564 33.844 140.722 33.64C140.428 33.0507 140.156 32.4387 139.906 31.804C139.68 31.1693 139.442 30.5347 139.192 29.9C139.056 29.56 138.92 29.22 138.784 28.88C138.648 28.54 138.512 28.2 138.376 27.86V28.064C138.195 28.064 138.002 28.0867 137.798 28.132C137.594 28.1547 137.368 28.1773 137.118 28.2C136.96 28.2227 136.801 28.234 136.642 28.234C136.506 28.234 136.348 28.234 136.166 28.234C135.804 28.234 135.43 28.2227 135.044 28.2C134.659 28.1773 134.285 28.166 133.922 28.166C133.764 28.166 133.605 28.1773 133.446 28.2C133.31 28.2 133.186 28.2113 133.072 28.234C132.71 28.2567 132.313 28.336 131.882 28.472C131.474 28.5853 131.01 28.642 130.488 28.642C130.194 28.642 129.91 28.642 129.638 28.642C129.389 28.6193 129.14 28.5967 128.89 28.574C128.822 28.7553 128.754 28.9367 128.686 29.118C128.618 29.2993 128.55 29.4807 128.482 29.662C127.938 31.09 127.508 32.2233 127.19 33.062C126.873 33.878 126.624 34.49 126.442 34.898C126.261 35.2833 126.102 35.5327 125.966 35.646L124.47 33.81C124.493 33.7873 124.572 33.6173 124.708 33.3C124.844 32.96 125.003 32.552 125.184 32.076C125.366 31.5773 125.547 31.09 125.728 30.614C125.91 30.138 126.068 29.73 126.204 29.39C126.34 29.0273 126.42 28.8347 126.442 28.812C127.1 27.0667 127.678 25.2987 128.176 23.508C128.698 21.6947 129.287 19.8927 129.944 18.102C130.602 16.3113 131.486 14.5887 132.596 12.934L133.106 13.342L135.316 12.696C135.498 13.3987 135.747 14.1013 136.064 14.804C136.382 15.5067 136.699 16.2547 137.016 17.048C137.402 17.9547 137.696 18.8613 137.9 19.768C138.127 20.6747 138.399 21.5473 138.716 22.386C139.102 23.4287 139.521 24.494 139.974 25.582C140.428 26.67 140.87 27.7807 141.3 28.914C141.55 29.5713 141.799 30.2173 142.048 30.852C142.32 31.4867 142.615 32.1213 142.932 32.756C143.272 33.4133 143.499 33.9573 143.612 34.388C143.726 34.796 143.612 35.1587 143.272 35.476C142.774 35.952 142.309 36.19 141.878 36.19ZM129.638 26.262C129.797 26.2167 129.944 26.1827 130.08 26.16C130.216 26.1373 130.352 26.126 130.488 26.126C130.806 26.126 131.146 26.1373 131.508 26.16C131.894 26.16 132.313 26.126 132.766 26.058C132.948 26.0353 133.129 26.024 133.31 26.024C133.514 26.0013 133.718 25.99 133.922 25.99C134.308 25.99 134.693 26.0013 135.078 26.024C135.464 26.0467 135.826 26.058 136.166 26.058H136.88C136.994 26.0353 137.107 26.024 137.22 26.024C137.356 26.0013 137.481 25.9787 137.594 25.956C137.436 25.5253 137.277 25.0947 137.118 24.664C136.96 24.2333 136.79 23.8027 136.608 23.372C136.268 22.4653 135.985 21.57 135.758 20.686C135.554 19.7793 135.282 18.918 134.942 18.102C134.761 17.6713 134.557 17.2407 134.33 16.81C134.126 16.3567 133.934 15.8807 133.752 15.382C132.778 17.0367 131.996 18.7933 131.406 20.652C130.84 22.488 130.25 24.358 129.638 26.262ZM146.121 41.154C146.303 40.678 146.427 40.3607 146.495 40.202C146.586 40.066 146.665 39.9753 146.733 39.93C146.801 39.9073 146.915 39.828 147.073 39.692C147.232 39.5787 147.481 39.3067 147.821 38.876C149.136 37.244 150.009 35.2153 150.439 32.79C150.575 32.11 150.643 31.2713 150.643 30.274C150.643 29.4807 150.598 28.676 150.507 27.86C150.439 27.044 150.417 26.2847 150.439 25.582C150.485 23.9727 150.473 22.352 150.405 20.72C150.337 19.088 150.281 17.456 150.235 15.824V12.9H152.615V15.756C152.661 17.3653 152.717 18.986 152.785 20.618C152.853 22.2273 152.865 23.8593 152.819 25.514C152.797 26.1713 152.819 26.9193 152.887 27.758C152.978 28.574 153.023 29.4127 153.023 30.274C153.023 30.8407 153.001 31.3847 152.955 31.906C152.91 32.4047 152.853 32.8467 152.785 33.232C152.559 34.6373 152.162 35.986 151.595 37.278C151.051 38.57 150.417 39.6693 149.691 40.576C148.943 41.5053 148.161 42.1853 147.345 42.616C146.529 43.0467 145.793 43.2393 145.135 43.194C144.478 43.1487 144.025 42.8653 143.775 42.344C143.503 41.8453 143.549 41.12 143.911 40.168L146.121 41.154ZM167.006 35.442C165.215 35.442 163.787 35.2493 162.722 34.864C161.883 34.5467 161.101 34.048 160.376 33.368C159.65 32.688 158.97 32.0873 158.336 31.566L158.132 31.056L158.778 28.472C158.936 28.5173 159.095 28.676 159.254 28.948C159.435 29.22 159.571 29.39 159.662 29.458C160.251 29.9567 160.84 30.4893 161.43 31.056C162.019 31.6227 162.676 32.042 163.402 32.314C163.674 32.4047 164.082 32.4953 164.626 32.586C165.192 32.6767 165.986 32.722 167.006 32.722C167.754 32.722 168.366 32.654 168.842 32.518C169.318 32.3593 169.76 32.11 170.168 31.77C170.508 31.498 170.791 31.1353 171.018 30.682C171.267 30.206 171.392 29.7867 171.392 29.424C171.392 29.1293 171.369 28.846 171.324 28.574C171.278 28.302 171.086 27.962 170.746 27.554C170.428 27.1233 169.828 26.5793 168.944 25.922C168.354 25.4687 167.697 25.106 166.972 24.834C166.246 24.5393 165.487 24.222 164.694 23.882C163.923 23.5193 163.152 23.032 162.382 22.42C161.611 21.808 160.886 20.9467 160.206 19.836C159.707 18.9747 159.458 18.1587 159.458 17.388C159.458 16.3453 159.673 15.518 160.104 14.906C160.534 14.2713 161.226 13.7727 162.178 13.41C162.971 13.138 163.73 12.934 164.456 12.798C165.204 12.6393 165.929 12.56 166.632 12.56C167.606 12.56 168.513 12.696 169.352 12.968C170.213 13.24 171.108 13.682 172.038 14.294L170.95 16.572C170.247 16.1187 169.556 15.79 168.876 15.586C168.196 15.382 167.448 15.28 166.632 15.28C165.385 15.28 164.138 15.5067 162.892 15.96C162.212 16.2093 161.804 16.402 161.668 16.538C161.554 16.674 161.498 16.9573 161.498 17.388C161.498 17.4787 161.52 17.592 161.566 17.728C161.611 17.8413 161.747 18.0793 161.974 18.442C162.472 19.258 163.005 19.87 163.572 20.278C164.161 20.686 164.796 21.026 165.476 21.298C166.156 21.57 166.881 21.8873 167.652 22.25C168.445 22.59 169.284 23.1 170.168 23.78C171.12 24.5053 171.822 25.2307 172.276 25.956C172.752 26.6813 173.058 27.35 173.194 27.962C173.352 28.5513 173.432 29.0387 173.432 29.424C173.432 30.1947 173.228 31.022 172.82 31.906C172.434 32.7673 171.981 33.4247 171.46 33.878C170.734 34.4673 170.054 34.8753 169.42 35.102C168.808 35.3287 168.003 35.442 167.006 35.442Z" fill="#F2DBD4"/>
</svg>
