<svg width="34" height="34" viewBox="0 0 34 34" fill="none" xmlns="http://www.w3.org/2000/svg">
<path d="M17 0C10.2491 0 4.198 2.618 0 6.8L17 34L34 6.8C29.8209 2.635 23.7509 0 17 0ZM7.54505 8.5C7.54505 6.63 9.24692 5.1 11.327 5.1C13.4071 5.1 15.109 6.63 15.109 8.5C15.109 10.37 13.4071 11.9 11.327 11.9C9.24692 11.9 7.54505 10.37 7.54505 8.5ZM17 22.1C14.9199 22.1 13.218 20.57 13.218 18.7C13.218 16.83 14.9199 15.3 17 15.3C19.0801 15.3 20.782 16.83 20.782 18.7C20.782 20.57 19.0801 22.1 17 22.1Z" fill="#F2DBD4"/>
</svg>
