<svg width="248" height="86" viewBox="0 0 248 86" fill="none" xmlns="http://www.w3.org/2000/svg">
<rect width="248" height="86" rx="10" fill="#0A0A0A" fill-opacity="0.75"/>
<path d="M58 19C49.2636 19 41.4327 22.388 36 27.8L58 63L80 27.8C74.5918 22.41 66.7364 19 58 19ZM45.7642 30C45.7642 27.58 47.9666 25.6 50.6585 25.6C53.3504 25.6 55.5528 27.58 55.5528 30C55.5528 32.42 53.3504 34.4 50.6585 34.4C47.9666 34.4 45.7642 32.42 45.7642 30ZM58 47.6C55.3081 47.6 53.1057 45.62 53.1057 43.2C53.1057 40.78 55.3081 38.8 58 38.8C60.6919 38.8 62.8943 40.78 62.8943 43.2C62.8943 45.62 60.6919 47.6 58 47.6Z" fill="#F2DBD4"/>
<path d="M92.128 54.17C92.0373 53.4447 91.9693 52.708 91.924 51.96C91.9013 51.1893 91.89 50.4413 91.89 49.716V47.2C91.89 46.724 91.89 46.3047 91.89 45.942C91.89 45.5567 91.8787 45.194 91.856 44.854C91.7653 43.358 91.6973 41.8733 91.652 40.4C91.6067 38.904 91.5273 37.4193 91.414 35.946L91.584 32.24L96.174 31.968C96.4913 31.9453 96.786 31.8887 97.058 31.798C97.33 31.7073 97.5907 31.662 97.84 31.662C99.948 31.662 101.614 31.8887 102.838 32.342C104.085 32.7727 105.127 33.5547 105.966 34.688C106.329 35.164 106.623 35.844 106.85 36.728C107.099 37.612 107.224 38.5527 107.224 39.55C107.224 40.434 107.009 41.3067 106.578 42.168C106.17 43.0293 105.626 43.7773 104.946 44.412C104.289 45.024 103.597 45.4433 102.872 45.67C102.373 45.8287 101.727 45.942 100.934 46.01C100.141 46.0553 99.3473 46.0893 98.554 46.112C97.7833 46.112 97.1713 46.112 96.718 46.112L96.412 43.732C96.888 43.732 97.5 43.732 98.248 43.732C99.0187 43.732 99.7667 43.7093 100.492 43.664C101.24 43.6187 101.795 43.5393 102.158 43.426C102.589 43.29 103.008 43.018 103.416 42.61C103.824 42.1793 104.164 41.692 104.436 41.148C104.708 40.5813 104.844 40.0487 104.844 39.55C104.844 38.7793 104.765 38.1333 104.606 37.612C104.47 37.068 104.289 36.6487 104.062 36.354C103.541 35.6287 102.804 35.0733 101.852 34.688C100.9 34.3027 99.5627 34.11 97.84 34.11C97.6133 34.11 97.364 34.1667 97.092 34.28C96.8427 34.3933 96.5933 34.4387 96.344 34.416C95.8453 34.3933 95.3807 34.416 94.95 34.484C94.5193 34.552 94.1453 34.62 93.828 34.688C93.8053 34.8467 93.7827 35.0167 93.76 35.198C93.76 35.3793 93.7713 35.5607 93.794 35.742C93.9073 37.238 93.9867 38.734 94.032 40.23C94.0773 41.726 94.1453 43.2107 94.236 44.684C94.2587 45.0467 94.27 45.432 94.27 45.84C94.27 46.2253 94.27 46.6787 94.27 47.2V49.716C94.27 51.3707 94.3493 52.7193 94.508 53.762L92.128 54.17ZM112.327 54.034C112.327 51.9487 112.304 49.7727 112.259 47.506C112.213 45.2167 112.134 42.8707 112.021 40.468C111.998 40.264 111.987 40.0487 111.987 39.822C111.987 39.5953 111.987 39.38 111.987 39.176C111.987 37.952 112.021 36.728 112.089 35.504C112.179 34.2573 112.225 33.056 112.225 31.9H114.605C114.605 33.1013 114.559 34.3253 114.469 35.572C114.401 36.8187 114.367 38.02 114.367 39.176C114.367 39.4027 114.367 39.618 114.367 39.822C114.367 40.0033 114.378 40.1847 114.401 40.366C114.514 42.7687 114.593 45.126 114.639 47.438C114.684 49.75 114.707 51.9487 114.707 54.034H112.327ZM155.299 65.56C153.984 65.56 152.624 65.3787 151.219 65.016C149.836 64.6533 148.465 64.1887 147.105 63.622C145.745 63.078 144.475 62.5 143.297 61.888C142.639 61.548 141.948 61.1967 141.223 60.834C140.497 60.4713 139.806 60.018 139.149 59.474C138.582 58.9753 137.891 58.488 137.075 58.012C136.259 57.5587 135.375 57.026 134.423 56.414C133.357 55.734 132.315 55.088 131.295 54.476C130.275 53.864 129.164 53.4107 127.963 53.116C127.192 52.912 126.387 52.81 125.549 52.81C124.71 52.81 123.939 52.8553 123.237 52.946C122.534 53.0367 121.82 53.32 121.095 53.796C120.981 53.864 120.732 54 120.347 54.204C119.961 54.4307 119.565 54.646 119.157 54.85C118.771 55.054 118.499 55.156 118.341 55.156L118.001 53.49L116.913 54.238C116.822 53.6487 116.901 53.0933 117.151 52.572C117.4 52.028 117.729 51.5293 118.137 51.076C118.545 50.6227 118.953 50.2373 119.361 49.92C119.769 49.58 120.075 49.3307 120.279 49.172C121.979 47.7213 123.531 46.1347 124.937 44.412C126.365 42.6893 127.77 40.9667 129.153 39.244C129.81 38.4507 130.558 37.7027 131.397 37C132.258 36.2747 132.972 35.5267 133.539 34.756C133.108 34.7787 132.632 34.79 132.111 34.79C131.612 34.7673 131.079 34.7107 130.513 34.62C129.901 34.5067 129.187 34.3933 128.371 34.28C127.555 34.144 126.75 34.076 125.957 34.076C125.662 34.076 125.379 34.076 125.107 34.076C124.857 34.076 124.642 34.1213 124.461 34.212C123.917 34.4387 123.531 34.722 123.305 35.062C123.078 35.402 122.999 35.9007 123.067 36.558C123.112 36.762 123.135 36.9547 123.135 37.136C123.157 37.2947 123.18 37.4307 123.203 37.544C123.248 37.7707 123.248 37.85 123.203 37.782C123.157 37.714 123.044 37.612 122.863 37.476L121.809 39.04C121.65 38.8587 121.469 38.7113 121.265 38.598C121.061 38.462 120.936 38.2467 120.891 37.952C120.823 37.6347 120.789 37.3513 120.789 37.102C120.789 36.8527 120.789 36.6827 120.789 36.592C120.698 35.3227 120.913 34.382 121.435 33.77C121.979 33.1353 122.715 32.58 123.645 32.104C124.166 31.832 124.925 31.696 125.923 31.696C126.716 31.696 127.555 31.7527 128.439 31.866C129.345 31.9567 130.15 32.0813 130.853 32.24C131.283 32.308 131.748 32.3533 132.247 32.376C132.745 32.376 133.278 32.376 133.845 32.376C134.026 32.376 134.219 32.3193 134.423 32.206C134.649 32.0927 134.876 32.0473 135.103 32.07H135.239C135.42 31.8887 135.613 31.7187 135.817 31.56C136.021 31.4013 136.236 31.254 136.463 31.118C136.78 30.9367 137.029 30.7667 137.211 30.608C137.392 30.4493 137.63 30.37 137.925 30.37L138.333 30.982C138.378 30.982 138.389 30.9933 138.367 31.016C138.367 31.016 138.378 31.016 138.401 31.016L139.217 31.356C139.285 31.5827 139.307 31.73 139.285 31.798C139.285 31.866 139.296 31.9227 139.319 31.968C139.477 32.8293 139.443 33.4413 139.217 33.804C139.013 34.1667 138.718 34.382 138.333 34.45C137.947 34.4953 137.562 34.518 137.177 34.518C137.018 34.518 136.859 34.5407 136.701 34.586C136.542 34.6087 136.372 34.6427 136.191 34.688C136.168 34.7787 136.134 34.8693 136.089 34.96C136.043 35.028 135.998 35.1073 135.953 35.198C135.522 36.0367 135.001 36.7733 134.389 37.408C133.799 38.0427 133.187 38.632 132.553 39.176C131.941 39.72 131.374 40.3093 130.853 40.944C129.402 42.712 127.974 44.4573 126.569 46.18C125.163 47.88 123.588 49.4667 121.843 50.94C121.865 50.94 121.786 51.008 121.605 51.144C122.194 50.94 122.795 50.7927 123.407 50.702C124.019 50.5887 124.71 50.532 125.481 50.532C125.866 50.532 126.297 50.5547 126.773 50.6C127.249 50.6227 127.781 50.702 128.371 50.838C129.663 51.11 130.909 51.5747 132.111 52.232C133.312 52.8667 134.502 53.558 135.681 54.306C136.61 54.8953 137.494 55.428 138.333 55.904C139.171 56.4027 139.942 56.9467 140.645 57.536C141.143 57.9667 141.699 58.352 142.311 58.692C142.945 59.032 143.603 59.3607 144.283 59.678C145.461 60.2447 146.663 60.8 147.887 61.344C149.111 61.9107 150.335 62.3753 151.559 62.738C152.805 63.1007 154.029 63.282 155.231 63.282C155.661 63.282 156.103 63.1913 156.557 63.01C157.01 62.8287 157.384 62.602 157.679 62.33C157.973 62.058 158.098 61.7973 158.053 61.548C158.03 61.4347 158.019 61.3667 158.019 61.344C158.041 61.344 158.053 61.3327 158.053 61.31C157.985 61.174 157.905 61.0153 157.815 60.834C157.747 60.6753 157.679 60.4827 157.611 60.256L159.855 59.61C159.9 59.7233 159.968 59.9047 160.059 60.154C160.172 60.4033 160.251 60.6753 160.297 60.97C160.342 61.242 160.353 61.4913 160.331 61.718C160.308 61.9673 160.274 62.1827 160.229 62.364L160.263 62.398C160.013 63.3727 159.424 64.1433 158.495 64.71C157.565 65.2767 156.5 65.56 155.299 65.56ZM138.129 31.016L138.163 30.982H138.129V31.016ZM177.014 65.56C175.699 65.56 174.339 65.3787 172.934 65.016C171.551 64.6533 170.18 64.1887 168.82 63.622C167.46 63.078 166.19 62.5 165.012 61.888C164.354 61.548 163.663 61.1967 162.938 60.834C162.212 60.4713 161.521 60.018 160.864 59.474C160.297 58.9753 159.606 58.488 158.79 58.012C157.974 57.5587 157.09 57.026 156.138 56.414C155.072 55.734 154.03 55.088 153.01 54.476C151.99 53.864 150.879 53.4107 149.678 53.116C148.907 52.912 148.102 52.81 147.264 52.81C146.425 52.81 145.654 52.8553 144.952 52.946C144.249 53.0367 143.535 53.32 142.81 53.796C142.696 53.864 142.447 54 142.062 54.204C141.676 54.4307 141.28 54.646 140.872 54.85C140.486 55.054 140.214 55.156 140.056 55.156L139.716 53.49L138.628 54.238C138.537 53.6487 138.616 53.0933 138.866 52.572C139.115 52.028 139.444 51.5293 139.852 51.076C140.26 50.6227 140.668 50.2373 141.076 49.92C141.484 49.58 141.79 49.3307 141.994 49.172C143.694 47.7213 145.246 46.1347 146.652 44.412C148.08 42.6893 149.485 40.9667 150.868 39.244C151.525 38.4507 152.273 37.7027 153.112 37C153.973 36.2747 154.687 35.5267 155.254 34.756C154.823 34.7787 154.347 34.79 153.826 34.79C153.327 34.7673 152.794 34.7107 152.228 34.62C151.616 34.5067 150.902 34.3933 150.086 34.28C149.27 34.144 148.465 34.076 147.672 34.076C147.377 34.076 147.094 34.076 146.822 34.076C146.572 34.076 146.357 34.1213 146.176 34.212C145.632 34.4387 145.246 34.722 145.02 35.062C144.793 35.402 144.714 35.9007 144.782 36.558C144.827 36.762 144.85 36.9547 144.85 37.136C144.872 37.2947 144.895 37.4307 144.918 37.544C144.963 37.7707 144.963 37.85 144.918 37.782C144.872 37.714 144.759 37.612 144.578 37.476L143.524 39.04C143.365 38.8587 143.184 38.7113 142.98 38.598C142.776 38.462 142.651 38.2467 142.606 37.952C142.538 37.6347 142.504 37.3513 142.504 37.102C142.504 36.8527 142.504 36.6827 142.504 36.592C142.413 35.3227 142.628 34.382 143.15 33.77C143.694 33.1353 144.43 32.58 145.36 32.104C145.881 31.832 146.64 31.696 147.638 31.696C148.431 31.696 149.27 31.7527 150.154 31.866C151.06 31.9567 151.865 32.0813 152.568 32.24C152.998 32.308 153.463 32.3533 153.962 32.376C154.46 32.376 154.993 32.376 155.56 32.376C155.741 32.376 155.934 32.3193 156.138 32.206C156.364 32.0927 156.591 32.0473 156.818 32.07H156.954C157.135 31.8887 157.328 31.7187 157.532 31.56C157.736 31.4013 157.951 31.254 158.178 31.118C158.495 30.9367 158.744 30.7667 158.926 30.608C159.107 30.4493 159.345 30.37 159.64 30.37L160.048 30.982C160.093 30.982 160.104 30.9933 160.082 31.016C160.082 31.016 160.093 31.016 160.116 31.016L160.932 31.356C161 31.5827 161.022 31.73 161 31.798C161 31.866 161.011 31.9227 161.034 31.968C161.192 32.8293 161.158 33.4413 160.932 33.804C160.728 34.1667 160.433 34.382 160.048 34.45C159.662 34.4953 159.277 34.518 158.892 34.518C158.733 34.518 158.574 34.5407 158.416 34.586C158.257 34.6087 158.087 34.6427 157.906 34.688C157.883 34.7787 157.849 34.8693 157.804 34.96C157.758 35.028 157.713 35.1073 157.668 35.198C157.237 36.0367 156.716 36.7733 156.104 37.408C155.514 38.0427 154.902 38.632 154.268 39.176C153.656 39.72 153.089 40.3093 152.568 40.944C151.117 42.712 149.689 44.4573 148.284 46.18C146.878 47.88 145.303 49.4667 143.558 50.94C143.58 50.94 143.501 51.008 143.32 51.144C143.909 50.94 144.51 50.7927 145.122 50.702C145.734 50.5887 146.425 50.532 147.196 50.532C147.581 50.532 148.012 50.5547 148.488 50.6C148.964 50.6227 149.496 50.702 150.086 50.838C151.378 51.11 152.624 51.5747 153.826 52.232C155.027 52.8667 156.217 53.558 157.396 54.306C158.325 54.8953 159.209 55.428 160.048 55.904C160.886 56.4027 161.657 56.9467 162.36 57.536C162.858 57.9667 163.414 58.352 164.026 58.692C164.66 59.032 165.318 59.3607 165.998 59.678C167.176 60.2447 168.378 60.8 169.602 61.344C170.826 61.9107 172.05 62.3753 173.274 62.738C174.52 63.1007 175.744 63.282 176.946 63.282C177.376 63.282 177.818 63.1913 178.272 63.01C178.725 62.8287 179.099 62.602 179.394 62.33C179.688 62.058 179.813 61.7973 179.768 61.548C179.745 61.4347 179.734 61.3667 179.734 61.344C179.756 61.344 179.768 61.3327 179.768 61.31C179.7 61.174 179.62 61.0153 179.53 60.834C179.462 60.6753 179.394 60.4827 179.326 60.256L181.57 59.61C181.615 59.7233 181.683 59.9047 181.774 60.154C181.887 60.4033 181.966 60.6753 182.012 60.97C182.057 61.242 182.068 61.4913 182.046 61.718C182.023 61.9673 181.989 62.1827 181.944 62.364L181.978 62.398C181.728 63.3727 181.139 64.1433 180.21 64.71C179.28 65.2767 178.215 65.56 177.014 65.56ZM159.844 31.016L159.878 30.982H159.844V31.016ZM177.878 55.19C177.47 55.19 177.13 55.02 176.858 54.68C176.609 54.3627 176.484 53.9547 176.484 53.456C176.484 53.116 176.564 52.844 176.722 52.64C176.428 52.0507 176.156 51.4387 175.906 50.804C175.68 50.1693 175.442 49.5347 175.192 48.9C175.056 48.56 174.92 48.22 174.784 47.88C174.648 47.54 174.512 47.2 174.376 46.86V47.064C174.195 47.064 174.002 47.0867 173.798 47.132C173.594 47.1547 173.368 47.1773 173.118 47.2C172.96 47.2227 172.801 47.234 172.642 47.234C172.506 47.234 172.348 47.234 172.166 47.234C171.804 47.234 171.43 47.2227 171.044 47.2C170.659 47.1773 170.285 47.166 169.922 47.166C169.764 47.166 169.605 47.1773 169.446 47.2C169.31 47.2 169.186 47.2113 169.072 47.234C168.71 47.2567 168.313 47.336 167.882 47.472C167.474 47.5853 167.01 47.642 166.488 47.642C166.194 47.642 165.91 47.642 165.638 47.642C165.389 47.6193 165.14 47.5967 164.89 47.574C164.822 47.7553 164.754 47.9367 164.686 48.118C164.618 48.2993 164.55 48.4807 164.482 48.662C163.938 50.09 163.508 51.2233 163.19 52.062C162.873 52.878 162.624 53.49 162.442 53.898C162.261 54.2833 162.102 54.5327 161.966 54.646L160.47 52.81C160.493 52.7873 160.572 52.6173 160.708 52.3C160.844 51.96 161.003 51.552 161.184 51.076C161.366 50.5773 161.547 50.09 161.728 49.614C161.91 49.138 162.068 48.73 162.204 48.39C162.34 48.0273 162.42 47.8347 162.442 47.812C163.1 46.0667 163.678 44.2987 164.176 42.508C164.698 40.6947 165.287 38.8927 165.944 37.102C166.602 35.3113 167.486 33.5887 168.596 31.934L169.106 32.342L171.316 31.696C171.498 32.3987 171.747 33.1013 172.064 33.804C172.382 34.5067 172.699 35.2547 173.016 36.048C173.402 36.9547 173.696 37.8613 173.9 38.768C174.127 39.6747 174.399 40.5473 174.716 41.386C175.102 42.4287 175.521 43.494 175.974 44.582C176.428 45.67 176.87 46.7807 177.3 47.914C177.55 48.5713 177.799 49.2173 178.048 49.852C178.32 50.4867 178.615 51.1213 178.932 51.756C179.272 52.4133 179.499 52.9573 179.612 53.388C179.726 53.796 179.612 54.1587 179.272 54.476C178.774 54.952 178.309 55.19 177.878 55.19ZM165.638 45.262C165.797 45.2167 165.944 45.1827 166.08 45.16C166.216 45.1373 166.352 45.126 166.488 45.126C166.806 45.126 167.146 45.1373 167.508 45.16C167.894 45.16 168.313 45.126 168.766 45.058C168.948 45.0353 169.129 45.024 169.31 45.024C169.514 45.0013 169.718 44.99 169.922 44.99C170.308 44.99 170.693 45.0013 171.078 45.024C171.464 45.0467 171.826 45.058 172.166 45.058H172.88C172.994 45.0353 173.107 45.024 173.22 45.024C173.356 45.0013 173.481 44.9787 173.594 44.956C173.436 44.5253 173.277 44.0947 173.118 43.664C172.96 43.2333 172.79 42.8027 172.608 42.372C172.268 41.4653 171.985 40.57 171.758 39.686C171.554 38.7793 171.282 37.918 170.942 37.102C170.761 36.6713 170.557 36.2407 170.33 35.81C170.126 35.3567 169.934 34.8807 169.752 34.382C168.778 36.0367 167.996 37.7933 167.406 39.652C166.84 41.488 166.25 43.358 165.638 45.262ZM182.121 60.154C182.303 59.678 182.427 59.3607 182.495 59.202C182.586 59.066 182.665 58.9753 182.733 58.93C182.801 58.9073 182.915 58.828 183.073 58.692C183.232 58.5787 183.481 58.3067 183.821 57.876C185.136 56.244 186.009 54.2153 186.439 51.79C186.575 51.11 186.643 50.2713 186.643 49.274C186.643 48.4807 186.598 47.676 186.507 46.86C186.439 46.044 186.417 45.2847 186.439 44.582C186.485 42.9727 186.473 41.352 186.405 39.72C186.337 38.088 186.281 36.456 186.235 34.824V31.9H188.615V34.756C188.661 36.3653 188.717 37.986 188.785 39.618C188.853 41.2273 188.865 42.8593 188.819 44.514C188.797 45.1713 188.819 45.9193 188.887 46.758C188.978 47.574 189.023 48.4127 189.023 49.274C189.023 49.8407 189.001 50.3847 188.955 50.906C188.91 51.4047 188.853 51.8467 188.785 52.232C188.559 53.6373 188.162 54.986 187.595 56.278C187.051 57.57 186.417 58.6693 185.691 59.576C184.943 60.5053 184.161 61.1853 183.345 61.616C182.529 62.0467 181.793 62.2393 181.135 62.194C180.478 62.1487 180.025 61.8653 179.775 61.344C179.503 60.8453 179.549 60.12 179.911 59.168L182.121 60.154ZM203.006 54.442C201.215 54.442 199.787 54.2493 198.722 53.864C197.883 53.5467 197.101 53.048 196.376 52.368C195.65 51.688 194.97 51.0873 194.336 50.566L194.132 50.056L194.778 47.472C194.936 47.5173 195.095 47.676 195.254 47.948C195.435 48.22 195.571 48.39 195.662 48.458C196.251 48.9567 196.84 49.4893 197.43 50.056C198.019 50.6227 198.676 51.042 199.402 51.314C199.674 51.4047 200.082 51.4953 200.626 51.586C201.192 51.6767 201.986 51.722 203.006 51.722C203.754 51.722 204.366 51.654 204.842 51.518C205.318 51.3593 205.76 51.11 206.168 50.77C206.508 50.498 206.791 50.1353 207.018 49.682C207.267 49.206 207.392 48.7867 207.392 48.424C207.392 48.1293 207.369 47.846 207.324 47.574C207.278 47.302 207.086 46.962 206.746 46.554C206.428 46.1233 205.828 45.5793 204.944 44.922C204.354 44.4687 203.697 44.106 202.972 43.834C202.246 43.5393 201.487 43.222 200.694 42.882C199.923 42.5193 199.152 42.032 198.382 41.42C197.611 40.808 196.886 39.9467 196.206 38.836C195.707 37.9747 195.458 37.1587 195.458 36.388C195.458 35.3453 195.673 34.518 196.104 33.906C196.534 33.2713 197.226 32.7727 198.178 32.41C198.971 32.138 199.73 31.934 200.456 31.798C201.204 31.6393 201.929 31.56 202.632 31.56C203.606 31.56 204.513 31.696 205.352 31.968C206.213 32.24 207.108 32.682 208.038 33.294L206.95 35.572C206.247 35.1187 205.556 34.79 204.876 34.586C204.196 34.382 203.448 34.28 202.632 34.28C201.385 34.28 200.138 34.5067 198.892 34.96C198.212 35.2093 197.804 35.402 197.668 35.538C197.554 35.674 197.498 35.9573 197.498 36.388C197.498 36.4787 197.52 36.592 197.566 36.728C197.611 36.8413 197.747 37.0793 197.974 37.442C198.472 38.258 199.005 38.87 199.572 39.278C200.161 39.686 200.796 40.026 201.476 40.298C202.156 40.57 202.881 40.8873 203.652 41.25C204.445 41.59 205.284 42.1 206.168 42.78C207.12 43.5053 207.822 44.2307 208.276 44.956C208.752 45.6813 209.058 46.35 209.194 46.962C209.352 47.5513 209.432 48.0387 209.432 48.424C209.432 49.1947 209.228 50.022 208.82 50.906C208.434 51.7673 207.981 52.4247 207.46 52.878C206.734 53.4673 206.054 53.8753 205.42 54.102C204.808 54.3287 204.003 54.442 203.006 54.442Z" fill="#F2DBD4"/>
</svg>
